<svg class="nc-icon glyph" xmlns="http://www.w3.org/2000/svg" xmlns:xlink="http://www.w3.org/1999/xlink" x="0px" y="0px" width="24px" height="24px" viewBox="0 0 24 24"><g>
<path fill="#ffffff" d="M21.1,0H2.9C1.3,0,0,1.3,0,2.8v18.3C0,22.7,1.3,24,2.9,24h18.3c1.6,0,2.9-1.3,2.9-2.8V2.8
	C24,1.3,22.7,0,21.1,0z M18,3h2c0.6,0,1,0.4,1,1v2c0,0.6-0.4,1-1,1h-2c-0.6,0-1-0.4-1-1V4C17,3.4,17.4,3,18,3z M12,7.4
	c2.5,0,4.6,2.1,4.6,4.6c0,2.5-2.1,4.6-4.6,4.6c-2.5,0-4.6-2.1-4.6-4.6C7.4,9.5,9.5,7.4,12,7.4z M20,21H4c-0.6,0-1-0.4-1-1V10h2
	c-0.3,1.1-0.4,2.4-0.1,3.6c0.6,2.8,2.9,5,5.7,5.5c4.7,0.9,8.8-2.6,8.8-7.1c0-0.7-0.2-1.4-0.3-2h2v10C21,20.6,20.6,21,20,21z"></path>
</g></svg>