<svg class="nc-icon colored" xmlns="http://www.w3.org/2000/svg" xmlns:xlink="http://www.w3.org/1999/xlink" x="0px" y="0px" width="48px" height="48px" viewBox="0 0 48 48"><g>
<path fill="#8E6151" d="M0,5.69305V15h3V0.68073C1.21393,1.64258,0,3.526,0,5.69305z"></path>
<path fill="#8E6151" d="M42.29382,0.00018H15V15h33V5.69305C48,2.54877,45.4455,0.00018,42.29382,0.00018z"></path>
<path fill="#FA3756" d="M5.70654,0.00018C4.72699,0.00018,3.80548,0.24701,3,0.68073V15h3V0.00018H5.70654z"></path>
<rect x="6" y="0.00018" fill="#FEC849" width="3" height="14.99982"></rect>
<rect x="9" y="0.00018" fill="#71C997" width="3" height="14.99982"></rect>
<rect x="12" y="0.00018" fill="#4892FC" width="3" height="14.99982"></rect>
<path fill="#E9E2D6" d="M0,42.30725c0,3.14398,2.55487,5.69257,5.70654,5.69257h36.58728C45.4455,47.99982,48,45.45123,48,42.30725
	V15H0V42.30725z"></path>
<path fill="#1A1A1A" d="M42,12h-4c-1.10457,0-2-0.89543-2-2V6c0-1.10457,0.89543-2,2-2h4c1.10457,0,2,0.89543,2,2v4
	C44,11.10457,43.10457,12,42,12z"></path>
<circle fill="#37373A" cx="40" cy="8" r="2"></circle>
<circle fill="#E9E2D6" cx="24" cy="24" r="13"></circle>
<circle fill="#1A1A1A" cx="24" cy="24" r="11"></circle>
<circle fill="#37373A" cx="24" cy="24" r="8"></circle>
<circle fill="#1A1A1A" cx="24" cy="24" r="5"></circle>
</g></svg>